# xmcd CD database file
#
# Track frame offsets:
#	150
#	15702
#	25880
#	39900
#	52652
#	69775
#	80242
#	99545
#	109785
#	120440
#
# Disc length: 1770 seconds
#
# Revision: 0
# Processed by: cddbd v1.5.1PL0 Copyright (c) Steve Scherf et al.
# Submitted via: CDex 1.51
#
DISCID=6f06e80a
DTITLE=Various Artist - Hot Country Rock (Vol. 2)
DYEAR=1991
DGENRE=Country
TTITLE0=Charlie Daniels Band - Boogie Woogie Fiddle Country Blues
TTITLE1=Vern Gosdin - Right In The Wrong Direction 
TTITLE2=Mary-Chapin Carpenter - Read My Lips
TTITLE3=Exile - Give Me One More Chance
TTITLE4=Willie Nelson and Waylon Jennings - Take It To The Limit
TTITLE5=Geroge Jones and Johnny Paycheck - Mabellene
TTITLE6=Rodney Crowell - Oh King Richard
TTITLE7=Geroge Jones - Im A One Woman Man
TTITLE8=Steve Earle - Continental Trailways Blues
TTITLE9=Lacy J. Dalton - Beer Drinking Song
EXTD=YEAR: 1991
EXTT0=
EXTT1=
EXTT2=
EXTT3=
EXTT4=
EXTT5=
EXTT6=
EXTT7=
EXTT8=
EXTT9=
PLAYORDER=
